PathFileType	4	(X/Y/Z)	C:\Users\86182\Documents\cortex\Trimmed_M1_H5.trc
DataRate	CameraRate	NumFrames	NumMarkers	Units	OrigDataRate	OrigDataStartFrame	OrigNumFrames
100.00	100.00	       70	2	mm	100.00	541	       901
Frame#	Time	gripper			box			
		X1	Y1	Z1	X2	Y2	Z2	

541	5.400	219.57869	203.02608	287.37366	222.47498	202.68326	142.63155	
542	5.410	219.57452	203.02673	287.37482	222.47586	202.68315	142.63141	
543	5.420	219.56964	203.02777	287.37579	222.47734	202.68297	142.63116	
544	5.430	219.56441	203.02902	287.37659	222.47916	202.68274	142.63087	
545	5.440	219.55960	203.03027	287.37720	222.48119	202.68248	142.63055	
546	5.450	219.55594	203.03131	287.37762	222.48329	202.68222	142.63022	
547	5.460	219.55406	203.03197	287.37787	222.48521	202.68198	142.62991	
548	5.470	219.55449	203.03214	287.37793	222.48656	202.68181	142.62970	
549	5.480	219.55711	203.03183	287.37781	222.48674	202.68178	142.62967	
550	5.490	219.56102	203.03125	287.37753	222.48552	202.68193	142.62987	
551	5.500	219.56531	203.03055	287.37717	222.48334	202.68222	142.63022	
552	5.510	219.56935	203.02985	287.37671	222.48088	202.68253	142.63060	
553	5.520	219.57239	203.02930	287.37622	222.47868	202.68280	142.63095	
554	5.530	219.57367	203.02905	287.37567	222.47699	202.68301	142.63121	
555	5.540	219.57301	203.02922	287.37500	222.47578	202.68317	142.63141	
556	5.550	219.57068	203.02982	287.37421	222.47502	202.68326	142.63155	
557	5.560	219.56717	203.03079	287.37335	222.47456	202.68332	142.63162	
558	5.570	219.56325	203.03203	287.37256	222.47432	202.68335	142.63167	
559	5.580	219.55980	203.03325	287.37201	222.47421	202.68336	142.63170	
560	5.590	219.55768	203.03400	287.37195	222.47421	202.68336	142.63171	
561	5.600	219.55768	203.03400	287.37247	222.47435	202.68335	142.63168	
562	5.610	219.56027	203.03328	287.37326	222.47467	202.68330	142.63164	
563	5.620	219.56500	203.03210	287.37396	222.47533	202.68323	142.63153	
564	5.630	219.57053	203.03087	287.37448	222.47644	202.68309	142.63135	
565	5.640	219.57568	203.02974	287.37482	222.47813	202.68288	142.63106	
566	5.650	219.58015	203.02875	287.37500	222.48048	202.68257	142.63068	
567	5.660	219.58424	203.02783	287.37509	222.48337	202.68221	142.63022	
568	5.670	219.58804	203.02696	287.37512	222.48636	202.68184	142.62973	
569	5.680	219.59123	203.02621	287.37509	222.48871	202.68153	142.62933	
570	5.690	219.59317	203.02568	287.37506	222.48944	202.68144	142.62923	
571	5.700	219.59328	203.02551	287.37515	222.48820	202.68161	142.62943	
572	5.710	219.59096	203.02582	287.37537	222.48557	202.68193	142.62985	
573	5.720	219.58556	203.02673	287.37573	222.48253	202.68231	142.63036	
574	5.730	219.57645	203.02831	287.37616	222.47977	202.68266	142.63080	
575	5.740	219.56340	203.03049	287.37656	222.47758	202.68294	142.63115	
576	5.750	219.54684	203.03316	287.37674	222.47606	202.68314	142.63139	
577	5.760	219.52748	203.03609	287.37662	222.47508	202.68326	142.63156	
578	5.770	219.50578	203.03914	287.37622	222.47452	202.68332	142.63164	
579	5.780	219.48267	203.04207	287.37582	222.47424	202.68335	142.63168	
580	5.790	219.46130	203.04442	287.37555	222.47415	202.68336	142.63170	
581	5.800	219.44730	203.04556	287.37543	222.47417	202.68336	142.63170	
582	5.810	219.44612	203.04504	287.37549	222.47430	202.68335	142.63167	
583	5.820	219.45929	203.04289	287.37564	222.47461	202.68330	142.63162	
584	5.830	219.48300	203.03972	287.37576	222.47519	202.68324	142.63153	
585	5.840	219.51073	203.03630	287.37567	222.47617	202.68312	142.63136	
586	5.850	219.53700	203.03331	287.37537	222.47768	202.68292	142.63112	
587	5.860	219.55905	203.03105	287.37466	222.47977	202.68266	142.63078	
588	5.870	219.57599	203.02959	287.37366	222.48236	202.68234	142.63036	
589	5.880	219.58766	203.02888	287.37244	222.48515	202.68199	142.62991	
590	5.890	219.59422	203.02882	287.37128	222.48753	202.68169	142.62952	
591	5.900	219.59613	203.02922	287.37033	222.48894	202.68150	142.62929	
592	5.910	219.59410	203.02994	287.36981	222.48895	202.68150	142.62929	
593	5.920	219.58919	203.03078	287.36975	222.48746	202.68170	142.62952	
594	5.930	219.58275	203.03156	287.37009	222.48476	202.68204	142.62994	
595	5.940	219.57642	203.03203	287.37079	222.48160	202.68243	142.63046	
596	5.950	219.57191	203.03195	287.37183	222.47885	202.68279	142.63091	
597	5.960	219.57036	203.03131	287.37286	222.47713	202.68300	142.63120	
598	5.970	219.57166	203.03027	287.37366	222.47684	202.68303	142.63126	
599	5.980	219.57474	203.02911	287.37408	222.47829	202.68285	142.63103	
600	5.990	219.57831	203.02798	287.37408	222.48161	202.68243	142.63049	
601	6.000	219.58147	203.02698	287.37372	222.48677	202.68178	142.62965	
602	6.010	219.58395	203.02614	287.37299	222.49335	202.68095	142.62859	
603	6.020	219.58592	203.02545	287.37204	222.50053	202.68005	142.62741	
604	6.030	219.58768	203.02499	287.37103	222.50723	202.67921	142.62631	
605	6.040	219.58943	203.02484	287.37018	222.51257	202.67853	142.62544	
606	6.050	219.59117	203.02498	287.36960	222.51639	202.67805	142.62482	
607	6.060	219.59268	203.02530	287.36942	222.51930	202.67769	142.62436	
608	6.070	219.59361	203.02562	287.36954	222.52228	202.67731	142.62387	
609	6.080	219.59372	203.02586	287.36981	222.52550	202.67691	142.62335	
610	6.090	219.59288	203.02605	287.37030	222.52759	202.67665	142.62302	
